<svg xmlns="http://www.w3.org/2000/svg" xmlns:xlink="http://www.w3.org/1999/xlink" width="1080" zoomAndPan="magnify" viewBox="0 0 810 809.999993" height="1080" preserveAspectRatio="xMidYMid meet" version="1.2"><defs><clipPath id="4e94e51e96"><path d="M 623 40.8125 L 810 40.8125 L 810 228 L 623 228 Z M 623 40.8125 "/></clipPath><clipPath id="843a6aaf42"><path d="M 438.808594 208.234375 L 631.632812 208.234375 L 631.632812 509.773438 L 438.808594 509.773438 Z M 438.808594 208.234375 "/></clipPath><clipPath id="9fa4834b16"><path d="M 485.402344 229.738281 L 678.226562 229.738281 L 678.226562 509.773438 L 485.402344 509.773438 Z M 485.402344 229.738281 "/></clipPath><clipPath id="9fc9c38b2e"><path d="M 468.796875 266.894531 L 653.296875 266.894531 L 653.296875 451.394531 L 468.796875 451.394531 Z M 468.796875 266.894531 "/></clipPath></defs><g id="e9ce79d8a6"><path style=" stroke:none;fill-rule:nonzero;fill:#2563eb;fill-opacity:1;" d="M 414.324219 465.199219 L 237.757812 468.300781 C 237.0625 468.316406 236.367188 468.296875 235.675781 468.242188 C 234.980469 468.1875 234.292969 468.101562 233.609375 467.976562 C 232.921875 467.855469 232.246094 467.699219 231.578125 467.511719 C 230.90625 467.324219 230.25 467.101562 229.601562 466.847656 C 228.953125 466.59375 228.320312 466.3125 227.699219 465.996094 C 227.082031 465.679688 226.476562 465.332031 225.894531 464.957031 C 225.308594 464.582031 224.742188 464.179688 224.195312 463.75 C 223.648438 463.320312 223.125 462.863281 222.625 462.378906 C 222.125 461.898438 221.648438 461.390625 221.195312 460.863281 C 220.746094 460.335938 220.320312 459.785156 219.925781 459.214844 C 219.527344 458.640625 219.160156 458.054688 218.820312 457.445312 C 218.480469 456.839844 218.171875 456.21875 217.894531 455.578125 C 217.617188 454.941406 217.371094 454.292969 217.15625 453.632812 C 216.945312 452.96875 216.761719 452.300781 216.613281 451.621094 C 216.464844 450.941406 216.351562 450.253906 216.273438 449.5625 C 216.191406 448.875 216.144531 448.179688 216.132812 447.484375 C 216.121094 446.789062 216.144531 446.097656 216.199219 445.402344 C 216.253906 444.710938 216.34375 444.019531 216.46875 443.335938 C 216.59375 442.652344 216.75 441.976562 216.941406 441.308594 C 217.132812 440.640625 217.355469 439.980469 217.609375 439.335938 C 217.863281 438.6875 218.152344 438.054688 218.46875 437.4375 C 218.785156 436.816406 219.132812 436.214844 219.511719 435.632812 C 219.886719 435.046875 220.292969 434.480469 220.722656 433.9375 C 221.15625 433.394531 221.613281 432.871094 222.097656 432.371094 C 222.582031 431.871094 223.089844 431.398438 223.617188 430.949219 C 224.148438 430.496094 224.699219 430.074219 225.273438 429.679688 C 225.84375 429.285156 226.433594 428.917969 227.042969 428.582031 C 227.652344 428.242188 228.273438 427.9375 228.914062 427.660156 C 229.550781 427.382812 230.199219 427.140625 230.863281 426.929688 C 231.527344 426.714844 232.195312 426.539062 232.875 426.390625 C 233.554688 426.246094 234.242188 426.132812 234.933594 426.054688 C 235.625 425.976562 236.316406 425.929688 237.011719 425.921875 L 413.582031 422.816406 C 414.234375 422.804688 414.878906 422.859375 415.519531 422.972656 C 416.160156 423.089844 416.785156 423.265625 417.390625 423.507812 C 418 423.746094 418.574219 424.039062 419.125 424.394531 C 419.671875 424.746094 420.179688 425.148438 420.648438 425.601562 C 421.117188 426.054688 421.539062 426.546875 421.910156 427.082031 C 422.28125 427.617188 422.597656 428.183594 422.859375 428.78125 C 423.117188 429.378906 423.316406 429.996094 423.457031 430.632812 C 423.59375 431.269531 423.667969 431.914062 423.679688 432.566406 L 424.078125 455.101562 C 424.085938 455.722656 424.039062 456.34375 423.933594 456.957031 C 423.828125 457.574219 423.667969 458.171875 423.449219 458.757812 C 423.226562 459.339844 422.957031 459.898438 422.632812 460.433594 C 422.308594 460.964844 421.9375 461.460938 421.519531 461.925781 C 421.101562 462.386719 420.644531 462.808594 420.148438 463.183594 C 419.648438 463.5625 419.121094 463.890625 418.5625 464.164062 C 418.003906 464.441406 417.421875 464.664062 416.824219 464.832031 C 416.222656 465 415.609375 465.113281 414.988281 465.164062 C 414.769531 465.183594 414.546875 465.195312 414.324219 465.199219 Z M 414.324219 465.199219 "/><path style=" stroke:none;fill-rule:nonzero;fill:#2f2e41;fill-opacity:1;" d="M 380.226562 470.957031 L 235.367188 477.570312 C 234.714844 477.597656 234.070312 477.5625 233.425781 477.464844 C 232.78125 477.367188 232.152344 477.210938 231.539062 476.988281 C 230.925781 476.765625 230.339844 476.488281 229.78125 476.148438 C 229.222656 475.8125 228.703125 475.425781 228.222656 474.984375 C 227.742188 474.546875 227.308594 474.0625 226.921875 473.539062 C 226.535156 473.015625 226.203125 472.457031 225.925781 471.867188 C 225.648438 471.277344 225.433594 470.664062 225.277344 470.03125 C 225.121094 469.398438 225.027344 468.757812 225 468.105469 L 223.464844 434.527344 C 223.4375 433.878906 223.46875 433.230469 223.566406 432.585938 C 223.664062 431.941406 223.824219 431.3125 224.046875 430.699219 C 224.269531 430.085938 224.546875 429.503906 224.886719 428.945312 C 225.222656 428.386719 225.609375 427.867188 226.050781 427.386719 C 226.488281 426.902344 226.972656 426.46875 227.496094 426.082031 C 228.019531 425.699219 228.578125 425.367188 229.167969 425.089844 C 229.757812 424.8125 230.371094 424.597656 231.003906 424.441406 C 231.636719 424.285156 232.277344 424.191406 232.929688 424.160156 L 377.789062 417.550781 C 378.4375 417.519531 379.085938 417.554688 379.730469 417.652344 C 380.375 417.75 381.003906 417.910156 381.617188 418.128906 C 382.230469 418.351562 382.816406 418.632812 383.375 418.96875 C 383.933594 419.304688 384.453125 419.695312 384.933594 420.132812 C 385.414062 420.570312 385.847656 421.054688 386.234375 421.578125 C 386.621094 422.105469 386.953125 422.660156 387.230469 423.25 C 387.507812 423.839844 387.722656 424.453125 387.878906 425.085938 C 388.035156 425.71875 388.128906 426.359375 388.15625 427.011719 L 389.691406 460.589844 C 389.71875 461.222656 389.6875 461.855469 389.59375 462.484375 C 389.5 463.113281 389.347656 463.726562 389.136719 464.328125 C 388.925781 464.929688 388.660156 465.503906 388.339844 466.050781 C 388.019531 466.597656 387.648438 467.113281 387.226562 467.589844 C 386.808594 468.066406 386.347656 468.5 385.84375 468.890625 C 385.339844 469.277344 384.804688 469.617188 384.238281 469.902344 C 383.671875 470.191406 383.082031 470.417969 382.46875 470.59375 C 381.859375 470.765625 381.234375 470.878906 380.601562 470.933594 C 380.476562 470.945312 380.351562 470.953125 380.226562 470.957031 Z M 380.226562 470.957031 "/><path style=" stroke:none;fill-rule:nonzero;fill:#2563eb;fill-opacity:1;" d="M 135.257812 759.035156 L 135.257812 571.199219 C 135.257812 570.550781 135.324219 569.902344 135.449219 569.265625 C 135.578125 568.625 135.765625 568.007812 136.015625 567.40625 C 136.265625 566.800781 136.574219 566.230469 136.933594 565.6875 C 137.296875 565.148438 137.707031 564.648438 138.167969 564.1875 C 138.628906 563.726562 139.132812 563.3125 139.671875 562.953125 C 140.214844 562.589844 140.785156 562.285156 141.386719 562.035156 C 141.988281 561.785156 142.609375 561.597656 143.25 561.46875 C 143.886719 561.339844 144.535156 561.277344 145.183594 561.277344 L 167.726562 561.277344 C 168.378906 561.277344 169.023438 561.339844 169.660156 561.46875 C 170.300781 561.597656 170.921875 561.785156 171.523438 562.035156 C 172.125 562.285156 172.695312 562.589844 173.238281 562.953125 C 173.78125 563.3125 174.28125 563.726562 174.742188 564.1875 C 175.203125 564.648438 175.613281 565.148438 175.976562 565.6875 C 176.339844 566.230469 176.644531 566.800781 176.894531 567.40625 C 177.144531 568.007812 177.332031 568.625 177.460938 569.265625 C 177.585938 569.902344 177.652344 570.550781 177.652344 571.199219 L 177.652344 759.035156 C 177.652344 759.6875 177.589844 760.332031 177.460938 760.972656 C 177.332031 761.609375 177.144531 762.230469 176.894531 762.832031 C 176.644531 763.433594 176.339844 764.007812 175.976562 764.546875 C 175.613281 765.089844 175.203125 765.589844 174.742188 766.050781 C 174.28125 766.511719 173.78125 766.921875 173.238281 767.285156 C 172.695312 767.648438 172.125 767.953125 171.523438 768.203125 C 170.921875 768.453125 170.300781 768.640625 169.660156 768.769531 C 169.023438 768.894531 168.378906 768.960938 167.726562 768.960938 L 145.183594 768.960938 C 144.535156 768.960938 143.886719 768.894531 143.25 768.769531 C 142.609375 768.640625 141.988281 768.453125 141.386719 768.203125 C 140.785156 767.953125 140.214844 767.648438 139.671875 767.285156 C 139.132812 766.921875 138.628906 766.511719 138.167969 766.050781 C 137.707031 765.589844 137.296875 765.089844 136.933594 764.546875 C 136.574219 764.003906 136.265625 763.433594 136.015625 762.832031 C 135.765625 762.230469 135.578125 761.609375 135.453125 760.972656 C 135.324219 760.332031 135.257812 759.6875 135.257812 759.035156 Z M 135.257812 759.035156 "/><path style=" stroke:none;fill-rule:nonzero;fill:#2563eb;fill-opacity:1;" d="M 194.410156 759.035156 L 194.410156 571.199219 C 194.410156 570.550781 194.476562 569.902344 194.601562 569.265625 C 194.730469 568.625 194.917969 568.007812 195.167969 567.40625 C 195.417969 566.800781 195.726562 566.230469 196.085938 565.6875 C 196.449219 565.148438 196.859375 564.648438 197.320312 564.1875 C 197.78125 563.726562 198.28125 563.3125 198.824219 562.953125 C 199.367188 562.589844 199.9375 562.285156 200.539062 562.035156 C 201.140625 561.785156 201.761719 561.597656 202.402344 561.46875 C 203.039062 561.339844 203.6875 561.277344 204.335938 561.277344 L 226.878906 561.277344 C 227.53125 561.277344 228.175781 561.339844 228.8125 561.46875 C 229.453125 561.597656 230.074219 561.785156 230.675781 562.035156 C 231.277344 562.285156 231.847656 562.589844 232.390625 562.953125 C 232.933594 563.3125 233.433594 563.726562 233.894531 564.1875 C 234.355469 564.648438 234.765625 565.148438 235.128906 565.6875 C 235.492188 566.230469 235.796875 566.800781 236.046875 567.40625 C 236.296875 568.007812 236.484375 568.625 236.613281 569.265625 C 236.738281 569.902344 236.804688 570.550781 236.804688 571.199219 L 236.804688 759.035156 C 236.804688 759.6875 236.738281 760.332031 236.613281 760.972656 C 236.484375 761.609375 236.296875 762.230469 236.046875 762.832031 C 235.796875 763.433594 235.492188 764.007812 235.128906 764.546875 C 234.765625 765.089844 234.355469 765.589844 233.894531 766.050781 C 233.433594 766.511719 232.933594 766.921875 232.390625 767.285156 C 231.847656 767.648438 231.277344 767.953125 230.675781 768.203125 C 230.074219 768.453125 229.453125 768.640625 228.8125 768.769531 C 228.175781 768.894531 227.53125 768.960938 226.878906 768.960938 L 204.335938 768.960938 C 203.6875 768.960938 203.039062 768.894531 202.402344 768.769531 C 201.761719 768.640625 201.140625 768.453125 200.539062 768.203125 C 199.9375 767.953125 199.367188 767.648438 198.824219 767.285156 C 198.28125 766.921875 197.78125 766.511719 197.320312 766.050781 C 196.859375 765.589844 196.449219 765.089844 196.085938 764.546875 C 195.726562 764.003906 195.417969 763.433594 195.167969 762.832031 C 194.917969 762.230469 194.730469 761.609375 194.601562 760.972656 C 194.476562 760.332031 194.410156 759.6875 194.410156 759.035156 Z M 194.410156 759.035156 "/><path style=" stroke:none;fill-rule:nonzero;fill:#2563eb;fill-opacity:1;" d="M 278.183594 287.375 C 278.183594 288.648438 278.152344 289.921875 278.089844 291.195312 C 278.027344 292.46875 277.933594 293.738281 277.808594 295.007812 C 277.683594 296.277344 277.527344 297.539062 277.339844 298.800781 C 277.152344 300.0625 276.9375 301.316406 276.6875 302.566406 C 276.4375 303.816406 276.160156 305.058594 275.847656 306.296875 C 275.539062 307.53125 275.199219 308.761719 274.828125 309.980469 C 274.460938 311.199219 274.058594 312.410156 273.628906 313.609375 C 273.203125 314.808594 272.742188 316 272.253906 317.175781 C 271.765625 318.351562 271.25 319.519531 270.707031 320.671875 C 270.160156 321.824219 269.585938 322.960938 268.988281 324.085938 C 268.386719 325.207031 267.757812 326.316406 267.101562 327.410156 C 266.449219 328.503906 265.765625 329.578125 265.058594 330.640625 C 264.347656 331.699219 263.617188 332.742188 262.855469 333.765625 C 262.097656 334.789062 261.3125 335.792969 260.503906 336.777344 C 259.695312 337.761719 258.863281 338.726562 258.007812 339.671875 C 257.152344 340.617188 256.273438 341.539062 255.371094 342.441406 C 254.46875 343.339844 253.546875 344.21875 252.601562 345.074219 C 251.65625 345.929688 250.691406 346.765625 249.707031 347.574219 C 248.722656 348.378906 247.71875 349.164062 246.695312 349.925781 C 245.671875 350.683594 244.628906 351.417969 243.570312 352.125 C 242.507812 352.832031 241.433594 353.515625 240.339844 354.167969 C 239.246094 354.824219 238.136719 355.453125 237.011719 356.054688 C 235.886719 356.65625 234.75 357.226562 233.597656 357.773438 C 232.445312 358.316406 231.28125 358.832031 230.101562 359.320312 C 228.925781 359.808594 227.738281 360.265625 226.535156 360.695312 C 225.335938 361.125 224.125 361.527344 222.90625 361.894531 C 221.6875 362.265625 220.457031 362.605469 219.222656 362.914062 C 217.984375 363.226562 216.742188 363.503906 215.492188 363.753906 C 214.242188 364 212.988281 364.21875 211.726562 364.40625 C 210.464844 364.59375 209.199219 364.75 207.929688 364.875 C 206.664062 365 205.390625 365.09375 204.117188 365.15625 C 202.847656 365.21875 201.570312 365.25 200.296875 365.25 C 199.023438 365.25 197.75 365.21875 196.476562 365.15625 C 195.203125 365.09375 193.929688 365 192.664062 364.875 C 191.394531 364.75 190.128906 364.59375 188.867188 364.40625 C 187.609375 364.21875 186.351562 364 185.101562 363.753906 C 183.851562 363.503906 182.609375 363.226562 181.371094 362.914062 C 180.136719 362.605469 178.90625 362.265625 177.6875 361.894531 C 176.46875 361.527344 175.257812 361.125 174.058594 360.695312 C 172.859375 360.265625 171.667969 359.808594 170.492188 359.320312 C 169.3125 358.832031 168.148438 358.316406 166.996094 357.773438 C 165.84375 357.226562 164.707031 356.65625 163.582031 356.054688 C 162.457031 355.453125 161.347656 354.824219 160.253906 354.167969 C 159.164062 353.515625 158.085938 352.832031 157.027344 352.125 C 155.964844 351.417969 154.925781 350.683594 153.898438 349.925781 C 152.875 349.164062 151.871094 348.378906 150.886719 347.574219 C 149.902344 346.765625 148.9375 345.929688 147.992188 345.074219 C 147.046875 344.21875 146.125 343.339844 145.222656 342.441406 C 144.320312 341.539062 143.441406 340.617188 142.585938 339.671875 C 141.730469 338.726562 140.898438 337.761719 140.089844 336.777344 C 139.28125 335.792969 138.496094 334.789062 137.738281 333.765625 C 136.980469 332.742188 136.246094 331.699219 135.535156 330.640625 C 134.828125 329.578125 134.148438 328.503906 133.492188 327.410156 C 132.835938 326.316406 132.207031 325.207031 131.609375 324.085938 C 131.007812 322.960938 130.433594 321.824219 129.886719 320.671875 C 129.34375 319.519531 128.828125 318.351562 128.339844 317.175781 C 127.851562 316 127.394531 314.808594 126.964844 313.609375 C 126.535156 312.410156 126.132812 311.199219 125.765625 309.980469 C 125.394531 308.761719 125.054688 307.53125 124.746094 306.296875 C 124.433594 305.058594 124.15625 303.816406 123.90625 302.566406 C 123.660156 301.316406 123.441406 300.0625 123.253906 298.800781 C 123.066406 297.539062 122.910156 296.277344 122.785156 295.007812 C 122.660156 293.738281 122.566406 292.46875 122.503906 291.195312 C 122.441406 289.921875 122.410156 288.648438 122.410156 287.375 C 122.410156 286.101562 122.441406 284.828125 122.503906 283.554688 C 122.566406 282.28125 122.660156 281.011719 122.785156 279.742188 C 122.910156 278.472656 123.066406 277.210938 123.253906 275.949219 C 123.441406 274.6875 123.660156 273.433594 123.90625 272.183594 C 124.15625 270.933594 124.433594 269.6875 124.746094 268.453125 C 125.054688 267.21875 125.394531 265.988281 125.765625 264.769531 C 126.132812 263.550781 126.535156 262.339844 126.964844 261.140625 C 127.394531 259.941406 127.851562 258.75 128.339844 257.574219 C 128.828125 256.394531 129.34375 255.230469 129.886719 254.078125 C 130.433594 252.925781 131.007812 251.789062 131.605469 250.664062 C 132.207031 249.542969 132.835938 248.433594 133.492188 247.339844 C 134.148438 246.246094 134.828125 245.171875 135.535156 244.109375 C 136.246094 243.050781 136.980469 242.007812 137.738281 240.984375 C 138.496094 239.960938 139.28125 238.957031 140.089844 237.972656 C 140.898438 236.988281 141.730469 236.023438 142.585938 235.078125 C 143.441406 234.132812 144.320312 233.210938 145.222656 232.308594 C 146.125 231.410156 147.046875 230.53125 147.992188 229.675781 C 148.9375 228.816406 149.902344 227.984375 150.886719 227.175781 C 151.871094 226.367188 152.875 225.585938 153.898438 224.824219 C 154.925781 224.066406 155.964844 223.332031 157.027344 222.625 C 158.085938 221.917969 159.164062 221.234375 160.253906 220.582031 C 161.347656 219.925781 162.457031 219.296875 163.582031 218.695312 C 164.707031 218.09375 165.84375 217.523438 166.996094 216.976562 C 168.148438 216.433594 169.3125 215.917969 170.492188 215.429688 C 171.667969 214.941406 172.859375 214.484375 174.058594 214.054688 C 175.257812 213.625 176.46875 213.222656 177.6875 212.855469 C 178.90625 212.484375 180.136719 212.144531 181.371094 211.835938 C 182.609375 211.523438 183.851562 211.246094 185.101562 210.996094 C 186.351562 210.75 187.609375 210.53125 188.867188 210.34375 C 190.128906 210.15625 191.394531 210 192.664062 209.875 C 193.929688 209.75 195.203125 209.65625 196.476562 209.59375 C 197.75 209.53125 199.023438 209.5 200.296875 209.5 C 201.570312 209.5 202.847656 209.53125 204.117188 209.59375 C 205.390625 209.65625 206.664062 209.75 207.929688 209.875 C 209.199219 210 210.464844 210.15625 211.726562 210.34375 C 212.988281 210.53125 214.242188 210.75 215.492188 210.996094 C 216.742188 211.246094 217.984375 211.523438 219.222656 211.835938 C 220.457031 212.144531 221.6875 212.484375 222.90625 212.855469 C 224.125 213.222656 225.335938 213.625 226.535156 214.054688 C 227.738281 214.484375 228.925781 214.941406 230.101562 215.429688 C 231.28125 215.917969 232.445312 216.433594 233.597656 216.976562 C 234.75 217.523438 235.886719 218.09375 237.011719 218.695312 C 238.136719 219.296875 239.246094 219.925781 240.339844 220.582031 C 241.433594 221.234375 242.507812 221.917969 243.570312 222.625 C 244.628906 223.332031 245.671875 224.066406 246.695312 224.824219 C 247.71875 225.585938 248.722656 226.367188 249.707031 227.175781 C 250.691406 227.984375 251.65625 228.816406 252.601562 229.675781 C 253.546875 230.53125 254.46875 231.410156 255.371094 232.308594 C 256.273438 233.210938 257.152344 234.132812 258.007812 235.078125 C 258.863281 236.023438 259.695312 236.988281 260.503906 237.972656 C 261.3125 238.957031 262.097656 239.960938 262.855469 240.984375 C 263.617188 242.007812 264.347656 243.050781 265.058594 244.109375 C 265.765625 245.171875 266.449219 246.246094 267.101562 247.339844 C 267.757812 248.433594 268.386719 249.542969 268.988281 250.664062 C 269.585938 251.789062 270.160156 252.925781 270.707031 254.078125 C 271.25 255.230469 271.765625 256.394531 272.253906 257.574219 C 272.742188 258.75 273.203125 259.941406 273.628906 261.140625 C 274.058594 262.339844 274.460938 263.550781 274.828125 264.769531 C 275.199219 265.988281 275.539062 267.21875 275.847656 268.453125 C 276.160156 269.6875 276.4375 270.933594 276.6875 272.183594 C 276.9375 273.433594 277.152344 274.6875 277.339844 275.949219 C 277.527344 277.210938 277.683594 278.472656 277.808594 279.742188 C 277.933594 281.011719 278.027344 282.28125 278.089844 283.554688 C 278.152344 284.828125 278.183594 286.101562 278.183594 287.375 Z M 278.183594 287.375 "/><path style=" stroke:none;fill-rule:nonzero;fill:#2f2e41;fill-opacity:1;" d="M 242.457031 313.964844 C 244.992188 313.132812 247.238281 311.8125 249.203125 310.003906 C 250.503906 308.714844 251.472656 307.210938 252.105469 305.492188 C 252.742188 303.773438 252.984375 302 252.832031 300.171875 C 252.75 298.871094 252.382812 297.652344 251.730469 296.523438 C 251.074219 295.390625 250.207031 294.464844 249.117188 293.742188 C 246.332031 291.957031 242.609375 291.953125 238.816406 293.621094 L 238.957031 263.222656 L 235.902344 263.207031 L 235.734375 298.945312 L 238.089844 297.464844 C 240.816406 295.753906 244.714844 294.546875 247.46875 296.3125 C 248.160156 296.785156 248.707031 297.386719 249.117188 298.117188 C 249.523438 298.847656 249.75 299.628906 249.792969 300.464844 C 249.898438 301.824219 249.714844 303.144531 249.242188 304.425781 C 248.769531 305.703125 248.054688 306.828125 247.09375 307.796875 C 243.71875 311.015625 238.800781 312.023438 233.1875 312.925781 L 233.671875 315.941406 C 236.660156 315.542969 239.585938 314.886719 242.457031 313.964844 Z M 242.457031 313.964844 "/><path style=" stroke:none;fill-rule:nonzero;fill:#2f2e41;fill-opacity:1;" d="M 254.136719 263.839844 L 270.445312 261.683594 L 270.84375 264.710938 L 254.535156 266.867188 Z M 254.136719 263.839844 "/><path style=" stroke:none;fill-rule:nonzero;fill:#2f2e41;fill-opacity:1;" d="M 202.65625 270.632812 L 218.964844 268.480469 L 219.367188 271.507812 L 203.058594 273.660156 Z M 202.65625 270.632812 "/><path style=" stroke:none;fill-rule:nonzero;fill:#2563eb;fill-opacity:1;" d="M 35.054688 281.226562 L 146.882812 417.882812 C 147.324219 418.417969 147.738281 418.976562 148.121094 419.554688 C 148.507812 420.132812 148.867188 420.726562 149.191406 421.339844 C 149.519531 421.953125 149.816406 422.578125 150.082031 423.222656 C 150.347656 423.863281 150.582031 424.515625 150.785156 425.183594 C 150.984375 425.847656 151.152344 426.519531 151.289062 427.203125 C 151.421875 427.882812 151.523438 428.570312 151.59375 429.261719 C 151.660156 429.953125 151.695312 430.644531 151.691406 431.339844 C 151.691406 432.035156 151.660156 432.726562 151.589844 433.417969 C 151.519531 434.109375 151.417969 434.796875 151.28125 435.476562 C 151.144531 436.160156 150.976562 436.832031 150.773438 437.496094 C 150.574219 438.160156 150.339844 438.816406 150.070312 439.457031 C 149.804688 440.097656 149.507812 440.726562 149.179688 441.335938 C 148.851562 441.949219 148.492188 442.542969 148.105469 443.121094 C 147.71875 443.699219 147.304688 444.253906 146.863281 444.792969 C 146.421875 445.328125 145.957031 445.839844 145.464844 446.332031 C 144.972656 446.824219 144.457031 447.289062 143.917969 447.726562 C 143.382812 448.167969 142.824219 448.582031 142.246094 448.964844 C 141.667969 449.351562 141.070312 449.707031 140.457031 450.03125 C 139.84375 450.359375 139.214844 450.65625 138.574219 450.917969 C 137.929688 451.183594 137.277344 451.417969 136.613281 451.617188 C 135.945312 451.816406 135.273438 451.984375 134.589844 452.121094 C 133.910156 452.253906 133.222656 452.355469 132.53125 452.421875 C 131.839844 452.488281 131.148438 452.519531 130.453125 452.519531 C 129.757812 452.515625 129.0625 452.480469 128.371094 452.410156 C 127.679688 452.34375 126.996094 452.238281 126.3125 452.101562 C 125.632812 451.964844 124.960938 451.792969 124.296875 451.589844 C 123.632812 451.386719 122.976562 451.152344 122.335938 450.886719 C 121.695312 450.617188 121.070312 450.320312 120.457031 449.992188 C 119.84375 449.660156 119.25 449.304688 118.675781 448.914062 C 118.097656 448.527344 117.542969 448.113281 117.003906 447.671875 C 116.46875 447.230469 115.957031 446.761719 115.464844 446.269531 C 114.976562 445.777344 114.511719 445.261719 114.074219 444.722656 L 2.246094 308.066406 C 1.832031 307.5625 1.472656 307.023438 1.167969 306.449219 C 0.859375 305.875 0.613281 305.273438 0.425781 304.648438 C 0.234375 304.027344 0.109375 303.390625 0.046875 302.742188 C -0.015625 302.09375 -0.015625 301.445312 0.0507812 300.796875 C 0.113281 300.148438 0.242188 299.511719 0.433594 298.886719 C 0.621094 298.265625 0.871094 297.664062 1.179688 297.089844 C 1.488281 296.515625 1.847656 295.976562 2.261719 295.476562 C 2.679688 294.972656 3.136719 294.515625 3.640625 294.101562 L 21.085938 279.828125 C 21.589844 279.417969 22.132812 279.058594 22.707031 278.75 C 23.28125 278.445312 23.882812 278.199219 24.503906 278.007812 C 25.128906 277.820312 25.765625 277.695312 26.414062 277.632812 C 27.0625 277.570312 27.710938 277.570312 28.359375 277.636719 C 29.007812 277.699219 29.644531 277.828125 30.269531 278.019531 C 30.890625 278.207031 31.492188 278.457031 32.066406 278.765625 C 32.640625 279.074219 33.179688 279.433594 33.683594 279.847656 C 34.183594 280.261719 34.644531 280.722656 35.054688 281.226562 Z M 35.054688 281.226562 "/><path style=" stroke:none;fill-rule:nonzero;fill:#2f2e41;fill-opacity:1;" d="M 72.351562 311.726562 L 164.175781 423.941406 C 164.589844 424.445312 164.949219 424.984375 165.257812 425.558594 C 165.5625 426.132812 165.808594 426.734375 166 427.359375 C 166.1875 427.980469 166.3125 428.617188 166.375 429.265625 C 166.4375 429.914062 166.4375 430.5625 166.371094 431.210938 C 166.308594 431.859375 166.179688 432.496094 165.988281 433.121094 C 165.800781 433.742188 165.550781 434.34375 165.242188 434.917969 C 164.933594 435.492188 164.574219 436.03125 164.160156 436.53125 C 163.746094 437.035156 163.285156 437.492188 162.78125 437.90625 L 132.984375 462.28125 C 132.480469 462.695312 131.9375 463.054688 131.363281 463.359375 C 130.789062 463.667969 130.1875 463.914062 129.566406 464.101562 C 128.941406 464.292969 128.304688 464.417969 127.65625 464.480469 C 127.007812 464.542969 126.359375 464.542969 125.710938 464.476562 C 125.0625 464.410156 124.425781 464.285156 123.800781 464.09375 C 123.179688 463.902344 122.578125 463.65625 122.003906 463.347656 C 121.429688 463.039062 120.890625 462.675781 120.390625 462.261719 C 119.886719 461.847656 119.425781 461.390625 119.015625 460.886719 L 27.1875 348.671875 C 26.777344 348.167969 26.417969 347.628906 26.113281 347.050781 C 25.804688 346.476562 25.558594 345.878906 25.371094 345.253906 C 25.183594 344.628906 25.058594 343.992188 24.996094 343.34375 C 24.933594 342.695312 24.933594 342.046875 25 341.402344 C 25.0625 340.753906 25.191406 340.117188 25.378906 339.492188 C 25.570312 338.871094 25.820312 338.273438 26.125 337.695312 C 26.433594 337.121094 26.796875 336.585938 27.207031 336.082031 C 27.621094 335.578125 28.082031 335.121094 28.585938 334.707031 L 58.382812 310.328125 C 58.886719 309.917969 59.425781 309.558594 60.003906 309.25 C 60.578125 308.945312 61.175781 308.699219 61.800781 308.507812 C 62.425781 308.320312 63.0625 308.195312 63.710938 308.132812 C 64.359375 308.070312 65.007812 308.070312 65.65625 308.136719 C 66.304688 308.199219 66.941406 308.328125 67.566406 308.519531 C 68.1875 308.707031 68.785156 308.957031 69.359375 309.265625 C 69.9375 309.574219 70.472656 309.933594 70.976562 310.347656 C 71.480469 310.761719 71.9375 311.222656 72.351562 311.726562 Z M 72.351562 311.726562 "/><path style=" stroke:none;fill-rule:nonzero;fill:#3f3d56;fill-opacity:1;" d="M 708.988281 175.308594 C 708.710938 174.644531 708.382812 174.007812 708.011719 173.390625 C 707.640625 172.777344 707.222656 172.191406 706.765625 171.636719 C 706.308594 171.082031 705.8125 170.5625 705.277344 170.078125 C 704.746094 169.597656 704.179688 169.15625 703.582031 168.757812 C 702.984375 168.355469 702.359375 168 701.710938 167.691406 C 701.0625 167.382812 700.390625 167.125 699.703125 166.914062 C 699.015625 166.699219 698.316406 166.539062 697.605469 166.429688 C 696.894531 166.320312 696.179688 166.265625 695.460938 166.257812 L 425.4375 166.257812 C 424.476562 166.257812 423.523438 166.355469 422.582031 166.542969 C 421.640625 166.730469 420.722656 167.007812 419.835938 167.375 C 418.949219 167.742188 418.105469 168.195312 417.304688 168.726562 C 416.507812 169.261719 415.769531 169.867188 415.089844 170.546875 C 414.410156 171.226562 413.800781 171.964844 413.269531 172.765625 C 412.734375 173.5625 412.28125 174.40625 411.914062 175.292969 C 411.546875 176.183594 411.269531 177.097656 411.082031 178.039062 C 410.894531 178.980469 410.800781 179.933594 410.800781 180.894531 L 410.800781 522.445312 C 410.800781 523.40625 410.894531 524.359375 411.082031 525.300781 C 411.269531 526.242188 411.546875 527.15625 411.914062 528.042969 C 412.285156 528.933594 412.734375 529.773438 413.269531 530.574219 C 413.800781 531.371094 414.410156 532.113281 415.089844 532.792969 C 415.769531 533.472656 416.507812 534.078125 417.304688 534.613281 C 418.105469 535.144531 418.949219 535.597656 419.835938 535.964844 C 420.722656 536.332031 421.640625 536.609375 422.582031 536.796875 C 423.523438 536.984375 424.476562 537.078125 425.4375 537.082031 L 695.46875 537.082031 C 696.429688 537.078125 697.382812 536.984375 698.324219 536.796875 C 699.265625 536.609375 700.183594 536.328125 701.070312 535.960938 C 701.957031 535.59375 702.800781 535.140625 703.597656 534.609375 C 704.398438 534.074219 705.136719 533.46875 705.816406 532.789062 C 706.496094 532.109375 707.101562 531.371094 707.636719 530.570312 C 708.167969 529.773438 708.621094 528.929688 708.988281 528.042969 C 709.355469 527.15625 709.636719 526.242188 709.824219 525.300781 C 710.011719 524.355469 710.105469 523.40625 710.109375 522.445312 L 710.109375 180.894531 C 710.113281 178.957031 709.746094 177.09375 709 175.308594 Z M 706.847656 522.445312 C 706.847656 523.191406 706.773438 523.933594 706.628906 524.664062 C 706.480469 525.398438 706.265625 526.109375 705.976562 526.800781 C 705.691406 527.492188 705.339844 528.144531 704.925781 528.765625 C 704.507812 529.386719 704.039062 529.964844 703.507812 530.492188 C 702.980469 531.019531 702.40625 531.492188 701.785156 531.90625 C 701.164062 532.324219 700.507812 532.671875 699.816406 532.960938 C 699.125 533.246094 698.414062 533.464844 697.683594 533.609375 C 696.949219 533.757812 696.207031 533.828125 695.460938 533.832031 L 425.4375 533.832031 C 424.6875 533.832031 423.949219 533.757812 423.214844 533.609375 C 422.480469 533.464844 421.769531 533.25 421.078125 532.964844 C 420.390625 532.675781 419.734375 532.328125 419.109375 531.910156 C 418.488281 531.496094 417.914062 531.023438 417.386719 530.496094 C 416.855469 529.96875 416.386719 529.390625 415.96875 528.769531 C 415.554688 528.148438 415.203125 527.492188 414.917969 526.804688 C 414.632812 526.113281 414.414062 525.402344 414.269531 524.667969 C 414.121094 523.933594 414.050781 523.195312 414.050781 522.445312 L 414.050781 180.894531 C 414.050781 180.148438 414.125 179.410156 414.269531 178.675781 C 414.417969 177.941406 414.632812 177.230469 414.921875 176.542969 C 415.207031 175.851562 415.558594 175.195312 415.972656 174.574219 C 416.390625 173.953125 416.859375 173.378906 417.390625 172.851562 C 417.917969 172.320312 418.492188 171.851562 419.113281 171.433594 C 419.734375 171.019531 420.390625 170.667969 421.082031 170.382812 C 421.769531 170.09375 422.484375 169.878906 423.214844 169.730469 C 423.949219 169.585938 424.6875 169.511719 425.4375 169.511719 L 695.46875 169.511719 C 696.609375 169.515625 697.71875 169.683594 698.804688 170.019531 C 699.890625 170.355469 700.90625 170.84375 701.847656 171.480469 C 702.789062 172.117188 703.617188 172.878906 704.332031 173.765625 C 705.042969 174.648438 705.613281 175.617188 706.039062 176.671875 C 706.207031 177.09375 706.347656 177.523438 706.46875 177.957031 C 706.726562 178.917969 706.855469 179.898438 706.859375 180.894531 Z M 706.847656 522.445312 "/><path style=" stroke:none;fill-rule:nonzero;fill:#3f3d56;fill-opacity:1;" d="M 652.636719 246.898438 L 571.304688 246.898438 C 570.875 246.898438 570.453125 246.855469 570.035156 246.773438 C 569.613281 246.691406 569.207031 246.566406 568.8125 246.402344 C 568.417969 246.238281 568.042969 246.039062 567.6875 245.800781 C 567.332031 245.5625 567.003906 245.292969 566.703125 244.992188 C 566.398438 244.691406 566.128906 244.363281 565.894531 244.007812 C 565.65625 243.652344 565.453125 243.277344 565.292969 242.882812 C 565.128906 242.488281 565.003906 242.082031 564.921875 241.660156 C 564.835938 241.242188 564.796875 240.820312 564.796875 240.390625 C 564.796875 239.964844 564.835938 239.542969 564.921875 239.121094 C 565.003906 238.703125 565.128906 238.296875 565.292969 237.902344 C 565.453125 237.507812 565.65625 237.132812 565.894531 236.777344 C 566.128906 236.421875 566.398438 236.09375 566.703125 235.792969 C 567.003906 235.488281 567.332031 235.21875 567.6875 234.984375 C 568.042969 234.746094 568.417969 234.542969 568.8125 234.382812 C 569.207031 234.21875 569.613281 234.09375 570.035156 234.011719 C 570.453125 233.925781 570.875 233.886719 571.304688 233.886719 L 652.636719 233.886719 C 653.066406 233.886719 653.488281 233.925781 653.90625 234.011719 C 654.328125 234.09375 654.734375 234.21875 655.128906 234.382812 C 655.523438 234.542969 655.898438 234.746094 656.253906 234.984375 C 656.609375 235.21875 656.9375 235.488281 657.238281 235.792969 C 657.542969 236.09375 657.8125 236.421875 658.046875 236.777344 C 658.285156 237.132812 658.488281 237.507812 658.648438 237.902344 C 658.8125 238.296875 658.9375 238.703125 659.019531 239.121094 C 659.105469 239.542969 659.144531 239.964844 659.144531 240.390625 C 659.144531 240.820312 659.105469 241.242188 659.019531 241.660156 C 658.9375 242.082031 658.8125 242.488281 658.648438 242.882812 C 658.488281 243.277344 658.285156 243.652344 658.050781 244.007812 C 657.8125 244.363281 657.542969 244.691406 657.238281 244.992188 C 656.9375 245.292969 656.609375 245.5625 656.253906 245.800781 C 655.898438 246.039062 655.523438 246.238281 655.128906 246.402344 C 654.734375 246.566406 654.328125 246.691406 653.90625 246.773438 C 653.488281 246.855469 653.066406 246.898438 652.636719 246.898438 Z M 652.636719 246.898438 "/><path style=" stroke:none;fill-rule:nonzero;fill:#3f3d56;fill-opacity:1;" d="M 652.636719 281.054688 L 571.304688 281.054688 C 570.875 281.054688 570.453125 281.011719 570.035156 280.929688 C 569.613281 280.84375 569.207031 280.722656 568.8125 280.558594 C 568.417969 280.394531 568.042969 280.195312 567.6875 279.957031 C 567.332031 279.71875 567.003906 279.449219 566.703125 279.148438 C 566.398438 278.84375 566.128906 278.515625 565.894531 278.160156 C 565.65625 277.804688 565.453125 277.429688 565.292969 277.035156 C 565.128906 276.640625 565.003906 276.234375 564.921875 275.816406 C 564.835938 275.398438 564.796875 274.972656 564.796875 274.546875 C 564.796875 274.121094 564.835938 273.695312 564.921875 273.277344 C 565.003906 272.859375 565.128906 272.453125 565.292969 272.058594 C 565.453125 271.664062 565.65625 271.289062 565.894531 270.933594 C 566.128906 270.578125 566.398438 270.25 566.703125 269.945312 C 567.003906 269.644531 567.332031 269.375 567.6875 269.136719 C 568.042969 268.898438 568.417969 268.699219 568.8125 268.535156 C 569.207031 268.371094 569.613281 268.25 570.035156 268.167969 C 570.453125 268.082031 570.875 268.042969 571.304688 268.042969 L 652.636719 268.042969 C 653.066406 268.042969 653.488281 268.082031 653.90625 268.167969 C 654.328125 268.25 654.734375 268.371094 655.128906 268.535156 C 655.523438 268.699219 655.898438 268.898438 656.253906 269.136719 C 656.609375 269.375 656.9375 269.644531 657.238281 269.945312 C 657.542969 270.25 657.8125 270.578125 658.046875 270.933594 C 658.285156 271.289062 658.488281 271.664062 658.648438 272.058594 C 658.8125 272.453125 658.9375 272.859375 659.019531 273.277344 C 659.105469 273.695312 659.144531 274.121094 659.144531 274.546875 C 659.144531 274.972656 659.105469 275.398438 659.019531 275.816406 C 658.9375 276.234375 658.8125 276.640625 658.648438 277.035156 C 658.488281 277.429688 658.285156 277.804688 658.050781 278.160156 C 657.8125 278.515625 657.542969 278.84375 657.238281 279.148438 C 656.9375 279.449219 656.609375 279.71875 656.253906 279.957031 C 655.898438 280.195312 655.523438 280.394531 655.128906 280.558594 C 654.734375 280.722656 654.328125 280.84375 653.90625 280.929688 C 653.488281 281.011719 653.066406 281.054688 652.636719 281.054688 Z M 652.636719 281.054688 "/><path style=" stroke:none;fill-rule:nonzero;fill:#2563eb;fill-opacity:1;" d="M 529.570312 300.5 L 470.132812 300.5 C 469.652344 300.5 469.175781 300.453125 468.703125 300.359375 C 468.234375 300.265625 467.773438 300.125 467.332031 299.941406 C 466.886719 299.757812 466.464844 299.53125 466.066406 299.265625 C 465.667969 299 465.296875 298.695312 464.957031 298.355469 C 464.617188 298.015625 464.3125 297.644531 464.046875 297.246094 C 463.78125 296.847656 463.554688 296.425781 463.371094 295.980469 C 463.1875 295.539062 463.046875 295.082031 462.953125 294.609375 C 462.859375 294.136719 462.8125 293.664062 462.8125 293.183594 L 462.8125 223.050781 C 462.8125 222.570312 462.859375 222.09375 462.953125 221.621094 C 463.046875 221.152344 463.1875 220.695312 463.371094 220.25 C 463.554688 219.804688 463.78125 219.382812 464.046875 218.984375 C 464.3125 218.585938 464.617188 218.214844 464.957031 217.875 C 465.296875 217.535156 465.667969 217.234375 466.066406 216.964844 C 466.464844 216.699219 466.886719 216.472656 467.332031 216.289062 C 467.773438 216.105469 468.234375 215.964844 468.703125 215.871094 C 469.175781 215.777344 469.652344 215.730469 470.132812 215.730469 L 529.570312 215.730469 C 530.050781 215.730469 530.527344 215.777344 531 215.871094 C 531.46875 215.964844 531.925781 216.105469 532.371094 216.289062 C 532.816406 216.472656 533.238281 216.699219 533.636719 216.964844 C 534.035156 217.234375 534.40625 217.535156 534.746094 217.875 C 535.085938 218.214844 535.386719 218.585938 535.65625 218.984375 C 535.921875 219.382812 536.148438 219.804688 536.332031 220.25 C 536.515625 220.695312 536.65625 221.152344 536.75 221.621094 C 536.84375 222.09375 536.890625 222.570312 536.890625 223.050781 L 536.890625 293.183594 C 536.890625 293.664062 536.84375 294.136719 536.75 294.609375 C 536.65625 295.082031 536.515625 295.539062 536.332031 295.980469 C 536.148438 296.425781 535.921875 296.847656 535.65625 297.246094 C 535.386719 297.644531 535.085938 298.015625 534.746094 298.355469 C 534.40625 298.695312 534.035156 299 533.636719 299.265625 C 533.238281 299.53125 532.816406 299.757812 532.371094 299.941406 C 531.925781 300.125 531.46875 300.265625 531 300.359375 C 530.527344 300.453125 530.050781 300.5 529.570312 300.5 Z M 529.570312 300.5 "/><path style=" stroke:none;fill-rule:nonzero;fill:#cccccc;fill-opacity:1;" d="M 652.074219 350.992188 L 468.257812 350.992188 C 467.828125 350.992188 467.40625 350.949219 466.988281 350.867188 C 466.566406 350.78125 466.160156 350.660156 465.765625 350.496094 C 465.371094 350.332031 464.996094 350.132812 464.640625 349.894531 C 464.285156 349.65625 463.957031 349.386719 463.65625 349.085938 C 463.351562 348.78125 463.082031 348.453125 462.847656 348.097656 C 462.609375 347.742188 462.410156 347.367188 462.246094 346.972656 C 462.082031 346.578125 461.957031 346.171875 461.875 345.753906 C 461.792969 345.335938 461.75 344.910156 461.75 344.484375 C 461.75 344.058594 461.792969 343.632812 461.875 343.214844 C 461.957031 342.796875 462.082031 342.390625 462.246094 341.996094 C 462.410156 341.601562 462.609375 341.226562 462.847656 340.871094 C 463.082031 340.515625 463.351562 340.1875 463.65625 339.882812 C 463.957031 339.582031 464.285156 339.3125 464.640625 339.074219 C 464.996094 338.835938 465.371094 338.636719 465.765625 338.472656 C 466.160156 338.308594 466.566406 338.1875 466.988281 338.101562 C 467.40625 338.019531 467.828125 337.976562 468.257812 337.976562 L 652.074219 337.976562 C 652.5 337.976562 652.925781 338.019531 653.34375 338.101562 C 653.761719 338.1875 654.167969 338.308594 654.5625 338.472656 C 654.957031 338.636719 655.332031 338.835938 655.6875 339.074219 C 656.042969 339.3125 656.375 339.582031 656.675781 339.882812 C 656.976562 340.1875 657.246094 340.515625 657.484375 340.871094 C 657.722656 341.226562 657.921875 341.601562 658.085938 341.996094 C 658.25 342.390625 658.371094 342.796875 658.457031 343.214844 C 658.539062 343.632812 658.582031 344.058594 658.582031 344.484375 C 658.582031 344.910156 658.539062 345.335938 658.457031 345.753906 C 658.371094 346.171875 658.25 346.578125 658.085938 346.972656 C 657.921875 347.367188 657.722656 347.742188 657.484375 348.097656 C 657.246094 348.453125 656.976562 348.78125 656.675781 349.085938 C 656.375 349.386719 656.042969 349.65625 655.6875 349.894531 C 655.332031 350.132812 654.957031 350.332031 654.5625 350.496094 C 654.167969 350.660156 653.761719 350.78125 653.34375 350.867188 C 652.925781 350.949219 652.5 350.992188 652.074219 350.992188 Z M 652.074219 350.992188 "/><path style=" stroke:none;fill-rule:nonzero;fill:#cccccc;fill-opacity:1;" d="M 652.074219 385.144531 L 468.257812 385.144531 C 467.828125 385.144531 467.40625 385.105469 466.988281 385.019531 C 466.566406 384.9375 466.160156 384.8125 465.765625 384.648438 C 465.371094 384.488281 464.996094 384.285156 464.640625 384.050781 C 464.285156 383.8125 463.957031 383.542969 463.65625 383.238281 C 463.351562 382.9375 463.082031 382.609375 462.847656 382.253906 C 462.609375 381.898438 462.410156 381.523438 462.246094 381.128906 C 462.082031 380.734375 461.957031 380.328125 461.875 379.910156 C 461.792969 379.488281 461.75 379.066406 461.75 378.640625 C 461.75 378.210938 461.792969 377.789062 461.875 377.371094 C 461.957031 376.949219 462.082031 376.542969 462.246094 376.148438 C 462.410156 375.753906 462.609375 375.378906 462.847656 375.023438 C 463.082031 374.667969 463.351562 374.339844 463.65625 374.039062 C 463.957031 373.738281 464.285156 373.46875 464.640625 373.230469 C 464.996094 372.992188 465.371094 372.792969 465.765625 372.628906 C 466.160156 372.464844 466.566406 372.34375 466.988281 372.257812 C 467.40625 372.175781 467.828125 372.132812 468.257812 372.132812 L 652.074219 372.132812 C 652.5 372.132812 652.925781 372.175781 653.34375 372.257812 C 653.761719 372.34375 654.167969 372.464844 654.5625 372.628906 C 654.957031 372.792969 655.332031 372.992188 655.6875 373.230469 C 656.042969 373.46875 656.375 373.738281 656.675781 374.039062 C 656.976562 374.339844 657.246094 374.667969 657.484375 375.023438 C 657.722656 375.378906 657.921875 375.753906 658.085938 376.148438 C 658.25 376.542969 658.371094 376.949219 658.457031 377.371094 C 658.539062 377.789062 658.582031 378.210938 658.582031 378.640625 C 658.582031 379.066406 658.539062 379.488281 658.457031 379.910156 C 658.371094 380.328125 658.25 380.734375 658.085938 381.128906 C 657.921875 381.523438 657.722656 381.898438 657.484375 382.253906 C 657.246094 382.609375 656.976562 382.9375 656.675781 383.238281 C 656.375 383.542969 656.042969 383.8125 655.6875 384.050781 C 655.332031 384.285156 654.957031 384.488281 654.5625 384.648438 C 654.167969 384.8125 653.761719 384.9375 653.34375 385.019531 C 652.925781 385.105469 652.5 385.144531 652.074219 385.144531 Z M 652.074219 385.144531 "/><path style=" stroke:none;fill-rule:nonzero;fill:#cccccc;fill-opacity:1;" d="M 652.074219 419.300781 L 468.257812 419.300781 C 467.828125 419.300781 467.40625 419.257812 466.988281 419.175781 C 466.566406 419.09375 466.160156 418.96875 465.765625 418.804688 C 465.371094 418.640625 464.996094 418.441406 464.640625 418.203125 C 464.285156 417.96875 463.957031 417.695312 463.65625 417.394531 C 463.351562 417.09375 463.082031 416.765625 462.847656 416.410156 C 462.609375 416.054688 462.410156 415.679688 462.246094 415.285156 C 462.082031 414.890625 461.957031 414.484375 461.875 414.0625 C 461.792969 413.644531 461.75 413.222656 461.75 412.792969 C 461.75 412.367188 461.792969 411.945312 461.875 411.523438 C 461.957031 411.105469 462.082031 410.699219 462.246094 410.304688 C 462.410156 409.910156 462.609375 409.535156 462.847656 409.179688 C 463.082031 408.824219 463.351562 408.496094 463.65625 408.195312 C 463.957031 407.890625 464.285156 407.621094 464.640625 407.386719 C 464.996094 407.148438 465.371094 406.949219 465.765625 406.785156 C 466.160156 406.621094 466.566406 406.496094 466.988281 406.414062 C 467.40625 406.332031 467.828125 406.289062 468.257812 406.289062 L 652.074219 406.289062 C 652.5 406.289062 652.925781 406.332031 653.34375 406.414062 C 653.761719 406.496094 654.167969 406.621094 654.5625 406.785156 C 654.957031 406.949219 655.332031 407.148438 655.6875 407.386719 C 656.042969 407.621094 656.375 407.890625 656.675781 408.195312 C 656.976562 408.496094 657.246094 408.824219 657.484375 409.179688 C 657.722656 409.535156 657.921875 409.910156 658.085938 410.304688 C 658.25 410.699219 658.371094 411.105469 658.457031 411.523438 C 658.539062 411.945312 658.582031 412.367188 658.582031 412.792969 C 658.582031 413.222656 658.539062 413.644531 658.457031 414.0625 C 658.371094 414.484375 658.25 414.890625 658.085938 415.285156 C 657.921875 415.679688 657.722656 416.054688 657.484375 416.410156 C 657.246094 416.765625 656.976562 417.09375 656.675781 417.394531 C 656.375 417.695312 656.042969 417.96875 655.6875 418.203125 C 655.332031 418.441406 654.957031 418.640625 654.5625 418.804688 C 654.167969 418.96875 653.761719 419.09375 653.34375 419.175781 C 652.925781 419.257812 652.5 419.300781 652.074219 419.300781 Z M 652.074219 419.300781 "/><path style=" stroke:none;fill-rule:nonzero;fill:#cccccc;fill-opacity:1;" d="M 652.074219 453.457031 L 468.257812 453.457031 C 467.828125 453.457031 467.40625 453.414062 466.988281 453.332031 C 466.566406 453.246094 466.160156 453.125 465.765625 452.960938 C 465.371094 452.796875 464.996094 452.597656 464.640625 452.359375 C 464.285156 452.121094 463.957031 451.851562 463.65625 451.550781 C 463.351562 451.25 463.082031 450.917969 462.847656 450.5625 C 462.609375 450.210938 462.410156 449.835938 462.246094 449.4375 C 462.082031 449.042969 461.957031 448.636719 461.875 448.21875 C 461.792969 447.800781 461.75 447.378906 461.75 446.949219 C 461.75 446.523438 461.792969 446.097656 461.875 445.679688 C 461.957031 445.261719 462.082031 444.855469 462.246094 444.460938 C 462.410156 444.066406 462.609375 443.691406 462.847656 443.335938 C 463.082031 442.980469 463.351562 442.652344 463.65625 442.347656 C 463.957031 442.046875 464.285156 441.777344 464.640625 441.539062 C 464.996094 441.304688 465.371094 441.101562 465.765625 440.9375 C 466.160156 440.777344 466.566406 440.652344 466.988281 440.570312 C 467.40625 440.484375 467.828125 440.445312 468.257812 440.445312 L 652.074219 440.445312 C 652.5 440.445312 652.925781 440.484375 653.34375 440.570312 C 653.761719 440.652344 654.167969 440.777344 654.5625 440.9375 C 654.957031 441.101562 655.332031 441.304688 655.6875 441.539062 C 656.042969 441.777344 656.375 442.046875 656.675781 442.347656 C 656.976562 442.652344 657.246094 442.980469 657.484375 443.335938 C 657.722656 443.691406 657.921875 444.066406 658.085938 444.460938 C 658.25 444.855469 658.371094 445.261719 658.457031 445.679688 C 658.539062 446.097656 658.582031 446.523438 658.582031 446.949219 C 658.582031 447.378906 658.539062 447.800781 658.457031 448.21875 C 658.371094 448.636719 658.25 449.042969 658.085938 449.441406 C 657.921875 449.835938 657.722656 450.210938 657.484375 450.5625 C 657.246094 450.917969 656.976562 451.25 656.675781 451.550781 C 656.375 451.851562 656.042969 452.121094 655.6875 452.359375 C 655.332031 452.597656 654.957031 452.796875 654.5625 452.960938 C 654.167969 453.125 653.761719 453.246094 653.34375 453.332031 C 652.925781 453.414062 652.5 453.457031 652.074219 453.457031 Z M 652.074219 453.457031 "/><path style=" stroke:none;fill-rule:nonzero;fill:#cccccc;fill-opacity:1;" d="M 652.074219 487.609375 L 468.257812 487.609375 C 467.828125 487.609375 467.40625 487.570312 466.988281 487.484375 C 466.566406 487.402344 466.160156 487.277344 465.765625 487.117188 C 465.371094 486.953125 464.996094 486.75 464.640625 486.515625 C 464.285156 486.277344 463.957031 486.007812 463.65625 485.707031 C 463.351562 485.402344 463.082031 485.074219 462.847656 484.71875 C 462.609375 484.363281 462.410156 483.988281 462.246094 483.59375 C 462.082031 483.199219 461.957031 482.792969 461.875 482.375 C 461.792969 481.957031 461.75 481.53125 461.75 481.105469 C 461.75 480.675781 461.792969 480.253906 461.875 479.835938 C 461.957031 479.417969 462.082031 479.007812 462.246094 478.613281 C 462.410156 478.21875 462.609375 477.84375 462.847656 477.488281 C 463.082031 477.136719 463.351562 476.804688 463.65625 476.503906 C 463.957031 476.203125 464.285156 475.933594 464.640625 475.695312 C 464.996094 475.457031 465.371094 475.257812 465.765625 475.09375 C 466.160156 474.929688 466.566406 474.808594 466.988281 474.722656 C 467.40625 474.640625 467.828125 474.597656 468.257812 474.597656 L 652.074219 474.597656 C 652.5 474.597656 652.925781 474.640625 653.34375 474.722656 C 653.761719 474.808594 654.167969 474.929688 654.5625 475.09375 C 654.957031 475.257812 655.332031 475.457031 655.6875 475.695312 C 656.042969 475.933594 656.375 476.203125 656.675781 476.503906 C 656.976562 476.804688 657.246094 477.136719 657.484375 477.488281 C 657.722656 477.84375 657.921875 478.21875 658.085938 478.613281 C 658.25 479.007812 658.371094 479.417969 658.457031 479.835938 C 658.539062 480.253906 658.582031 480.675781 658.582031 481.105469 C 658.582031 481.53125 658.539062 481.957031 658.457031 482.375 C 658.371094 482.792969 658.25 483.199219 658.085938 483.59375 C 657.921875 483.988281 657.722656 484.363281 657.484375 484.71875 C 657.246094 485.074219 656.976562 485.402344 656.675781 485.707031 C 656.375 486.007812 656.042969 486.277344 655.6875 486.515625 C 655.332031 486.75 654.957031 486.953125 654.5625 487.117188 C 654.167969 487.277344 653.761719 487.402344 653.34375 487.484375 C 652.925781 487.570312 652.5 487.609375 652.074219 487.609375 Z M 652.074219 487.609375 "/><g clip-rule="nonzero" clip-path="url(#4e94e51e96)"><path style=" stroke:none;fill-rule:nonzero;fill:#2563eb;fill-opacity:1;" d="M 810 134.054688 C 810 135.582031 809.960938 137.105469 809.886719 138.625 C 809.8125 140.148438 809.699219 141.667969 809.550781 143.183594 C 809.402344 144.703125 809.214844 146.214844 808.992188 147.722656 C 808.769531 149.230469 808.507812 150.730469 808.210938 152.226562 C 807.914062 153.722656 807.578125 155.207031 807.207031 156.6875 C 806.835938 158.164062 806.429688 159.632812 805.988281 161.09375 C 805.546875 162.550781 805.066406 164 804.554688 165.433594 C 804.039062 166.867188 803.492188 168.289062 802.910156 169.699219 C 802.324219 171.105469 801.707031 172.5 801.054688 173.878906 C 800.402344 175.253906 799.71875 176.617188 799 177.960938 C 798.28125 179.304688 797.53125 180.632812 796.746094 181.9375 C 795.964844 183.246094 795.148438 184.535156 794.300781 185.800781 C 793.453125 187.070312 792.574219 188.3125 791.667969 189.539062 C 790.757812 190.761719 789.820312 191.964844 788.855469 193.140625 C 787.886719 194.320312 786.890625 195.472656 785.867188 196.605469 C 784.84375 197.734375 783.792969 198.835938 782.714844 199.914062 C 781.636719 200.992188 780.535156 202.042969 779.40625 203.066406 C 778.273438 204.089844 777.121094 205.085938 775.941406 206.054688 C 774.765625 207.019531 773.5625 207.957031 772.335938 208.867188 C 771.113281 209.773438 769.867188 210.652344 768.597656 211.496094 C 767.332031 212.34375 766.042969 213.160156 764.738281 213.945312 C 763.429688 214.726562 762.101562 215.476562 760.757812 216.195312 C 759.414062 216.914062 758.054688 217.601562 756.675781 218.253906 C 755.296875 218.902344 753.902344 219.519531 752.496094 220.105469 C 751.085938 220.6875 749.664062 221.238281 748.230469 221.75 C 746.792969 222.261719 745.347656 222.742188 743.886719 223.183594 C 742.429688 223.625 740.960938 224.03125 739.480469 224.402344 C 738 224.773438 736.515625 225.109375 735.019531 225.40625 C 733.523438 225.703125 732.023438 225.960938 730.515625 226.1875 C 729.007812 226.410156 727.492188 226.597656 725.976562 226.746094 C 724.460938 226.894531 722.941406 227.007812 721.417969 227.082031 C 719.894531 227.15625 718.371094 227.195312 716.847656 227.195312 C 715.320312 227.195312 713.796875 227.15625 712.277344 227.082031 C 710.753906 227.007812 709.234375 226.894531 707.714844 226.746094 C 706.199219 226.597656 704.6875 226.410156 703.175781 226.1875 C 701.667969 225.960938 700.167969 225.703125 698.671875 225.40625 C 697.175781 225.109375 695.691406 224.773438 694.210938 224.402344 C 692.734375 224.03125 691.265625 223.625 689.804688 223.183594 C 688.347656 222.742188 686.898438 222.261719 685.464844 221.75 C 684.027344 221.238281 682.605469 220.6875 681.199219 220.105469 C 679.789062 219.523438 678.394531 218.902344 677.019531 218.253906 C 675.640625 217.601562 674.277344 216.914062 672.933594 216.195312 C 671.589844 215.476562 670.261719 214.726562 668.957031 213.945312 C 667.648438 213.160156 666.359375 212.34375 665.09375 211.496094 C 663.824219 210.652344 662.578125 209.773438 661.355469 208.867188 C 660.128906 207.957031 658.929688 207.019531 657.75 206.054688 C 656.570312 205.085938 655.417969 204.089844 654.289062 203.066406 C 653.160156 202.042969 652.054688 200.992188 650.976562 199.914062 C 649.898438 198.835938 648.847656 197.734375 647.824219 196.605469 C 646.800781 195.472656 645.804688 194.320312 644.835938 193.140625 C 643.871094 191.964844 642.933594 190.761719 642.023438 189.539062 C 641.117188 188.3125 640.238281 187.070312 639.390625 185.800781 C 638.542969 184.535156 637.730469 183.246094 636.945312 181.9375 C 636.160156 180.632812 635.410156 179.304688 634.691406 177.960938 C 633.972656 176.617188 633.289062 175.253906 632.636719 173.878906 C 631.984375 172.5 631.367188 171.105469 630.785156 169.699219 C 630.199219 168.289062 629.652344 166.867188 629.136719 165.433594 C 628.625 164 628.144531 162.550781 627.703125 161.09375 C 627.261719 159.632812 626.855469 158.164062 626.484375 156.6875 C 626.113281 155.207031 625.78125 153.722656 625.484375 152.226562 C 625.183594 150.730469 624.925781 149.230469 624.699219 147.722656 C 624.476562 146.214844 624.289062 144.703125 624.140625 143.183594 C 623.992188 141.667969 623.878906 140.148438 623.804688 138.625 C 623.730469 137.105469 623.691406 135.582031 623.691406 134.054688 C 623.691406 132.53125 623.730469 131.007812 623.804688 129.484375 C 623.878906 127.964844 623.992188 126.445312 624.140625 124.925781 C 624.289062 123.410156 624.476562 121.898438 624.699219 120.390625 C 624.925781 118.882812 625.183594 117.378906 625.484375 115.886719 C 625.78125 114.390625 626.113281 112.902344 626.484375 111.425781 C 626.855469 109.945312 627.261719 108.476562 627.703125 107.019531 C 628.144531 105.558594 628.625 104.113281 629.136719 102.679688 C 629.652344 101.242188 630.199219 99.820312 630.785156 98.414062 C 631.367188 97.003906 631.984375 95.613281 632.636719 94.234375 C 633.289062 92.855469 633.972656 91.496094 634.691406 90.152344 C 635.410156 88.804688 636.160156 87.480469 636.945312 86.171875 C 637.730469 84.867188 638.542969 83.578125 639.390625 82.3125 C 640.238281 81.042969 641.117188 79.796875 642.023438 78.574219 C 642.933594 77.347656 643.871094 76.148438 644.835938 74.96875 C 645.804688 73.792969 646.800781 72.636719 647.824219 71.507812 C 648.847656 70.378906 649.898438 69.273438 650.976562 68.195312 C 652.054688 67.117188 653.160156 66.066406 654.289062 65.042969 C 655.417969 64.019531 656.570312 63.027344 657.75 62.058594 C 658.929688 61.089844 660.128906 60.152344 661.355469 59.246094 C 662.578125 58.339844 663.824219 57.460938 665.09375 56.613281 C 666.359375 55.765625 667.648438 54.953125 668.957031 54.167969 C 670.261719 53.382812 671.589844 52.632812 672.933594 51.914062 C 674.277344 51.195312 675.640625 50.511719 677.019531 49.859375 C 678.394531 49.207031 679.789062 48.589844 681.199219 48.007812 C 682.605469 47.421875 684.027344 46.875 685.464844 46.363281 C 686.898438 45.847656 688.347656 45.371094 689.804688 44.929688 C 691.265625 44.484375 692.734375 44.078125 694.210938 43.707031 C 695.691406 43.339844 697.175781 43.003906 698.671875 42.707031 C 700.167969 42.410156 701.667969 42.148438 703.175781 41.925781 C 704.6875 41.703125 706.199219 41.515625 707.714844 41.367188 C 709.234375 41.214844 710.753906 41.105469 712.277344 41.03125 C 713.796875 40.953125 715.320312 40.917969 716.847656 40.917969 C 718.371094 40.917969 719.894531 40.953125 721.417969 41.03125 C 722.941406 41.105469 724.460938 41.214844 725.976562 41.367188 C 727.492188 41.515625 729.007812 41.703125 730.515625 41.925781 C 732.023438 42.148438 733.523438 42.410156 735.019531 42.707031 C 736.515625 43.003906 738 43.339844 739.480469 43.707031 C 740.960938 44.078125 742.429688 44.484375 743.886719 44.929688 C 745.347656 45.371094 746.792969 45.847656 748.230469 46.363281 C 749.664062 46.875 751.085938 47.421875 752.496094 48.007812 C 753.902344 48.589844 755.296875 49.207031 756.675781 49.859375 C 758.050781 50.511719 759.414062 51.195312 760.757812 51.914062 C 762.101562 52.632812 763.429688 53.382812 764.738281 54.167969 C 766.042969 54.953125 767.332031 55.765625 768.597656 56.613281 C 769.867188 57.460938 771.113281 58.339844 772.335938 59.246094 C 773.5625 60.152344 774.765625 61.089844 775.941406 62.058594 C 777.121094 63.027344 778.273438 64.019531 779.40625 65.042969 C 780.535156 66.066406 781.636719 67.117188 782.714844 68.195312 C 783.792969 69.273438 784.84375 70.378906 785.867188 71.507812 C 786.890625 72.636719 787.886719 73.792969 788.855469 74.96875 C 789.820312 76.148438 790.757812 77.347656 791.667969 78.574219 C 792.574219 79.796875 793.453125 81.042969 794.300781 82.3125 C 795.148438 83.578125 795.964844 84.867188 796.746094 86.171875 C 797.53125 87.480469 798.28125 88.804688 799 90.152344 C 799.71875 91.496094 800.40625 92.855469 801.054688 94.234375 C 801.707031 95.613281 802.324219 97.003906 802.910156 98.414062 C 803.492188 99.820312 804.039062 101.242188 804.554688 102.679688 C 805.066406 104.113281 805.546875 105.558594 805.988281 107.019531 C 806.429688 108.476562 806.835938 109.945312 807.207031 111.425781 C 807.578125 112.902344 807.914062 114.390625 808.210938 115.886719 C 808.507812 117.378906 808.769531 118.882812 808.992188 120.390625 C 809.214844 121.898438 809.402344 123.410156 809.550781 124.925781 C 809.699219 126.445312 809.8125 127.964844 809.886719 129.484375 C 809.960938 131.007812 810 132.53125 810 134.054688 Z M 810 134.054688 "/></g><path style=" stroke:none;fill-rule:nonzero;fill:#ffffff;fill-opacity:1;" d="M 726.003906 187.207031 C 726.003906 187.925781 725.933594 188.636719 725.792969 189.34375 C 725.652344 190.050781 725.445312 190.734375 725.171875 191.398438 C 724.894531 192.0625 724.558594 192.695312 724.15625 193.292969 C 723.757812 193.894531 723.304688 194.445312 722.792969 194.957031 C 722.285156 195.464844 721.730469 195.917969 721.132812 196.316406 C 720.535156 196.71875 719.902344 197.054688 719.238281 197.332031 C 718.574219 197.605469 717.886719 197.8125 717.179688 197.953125 C 716.476562 198.09375 715.761719 198.164062 715.042969 198.164062 C 714.324219 198.164062 713.609375 198.09375 712.90625 197.953125 C 712.199219 197.8125 711.511719 197.605469 710.847656 197.332031 C 710.183594 197.054688 709.550781 196.71875 708.953125 196.316406 C 708.355469 195.917969 707.800781 195.464844 707.292969 194.957031 C 706.785156 194.445312 706.328125 193.894531 705.929688 193.292969 C 705.53125 192.695312 705.191406 192.0625 704.917969 191.398438 C 704.640625 190.734375 704.433594 190.050781 704.292969 189.34375 C 704.152344 188.636719 704.082031 187.925781 704.082031 187.207031 C 704.082031 186.484375 704.152344 185.773438 704.292969 185.066406 C 704.433594 184.363281 704.640625 183.675781 704.917969 183.011719 C 705.191406 182.347656 705.53125 181.714844 705.929688 181.117188 C 706.328125 180.519531 706.785156 179.964844 707.292969 179.457031 C 707.800781 178.949219 708.355469 178.492188 708.953125 178.09375 C 709.550781 177.695312 710.183594 177.355469 710.847656 177.082031 C 711.511719 176.804688 712.199219 176.597656 712.90625 176.457031 C 713.609375 176.316406 714.324219 176.246094 715.042969 176.246094 C 715.761719 176.246094 716.476562 176.316406 717.179688 176.457031 C 717.886719 176.597656 718.574219 176.804688 719.238281 177.082031 C 719.902344 177.355469 720.535156 177.695312 721.132812 178.09375 C 721.730469 178.492188 722.285156 178.949219 722.792969 179.457031 C 723.304688 179.964844 723.757812 180.519531 724.15625 181.117188 C 724.558594 181.714844 724.894531 182.347656 725.171875 183.011719 C 725.445312 183.675781 725.652344 184.363281 725.792969 185.066406 C 725.933594 185.773438 726.003906 186.484375 726.003906 187.207031 Z M 726.003906 187.207031 "/><path style=" stroke:none;fill-rule:nonzero;fill:#ffffff;fill-opacity:1;" d="M 713.867188 72.851562 C 712.847656 72.859375 711.832031 72.917969 710.816406 73.027344 C 709.800781 73.136719 708.792969 73.292969 707.792969 73.5 C 706.792969 73.703125 705.804688 73.957031 704.828125 74.257812 C 703.855469 74.558594 702.894531 74.90625 701.953125 75.300781 C 701.011719 75.695312 700.089844 76.132812 699.191406 76.613281 C 698.292969 77.097656 697.417969 77.621094 696.566406 78.1875 C 695.71875 78.753906 694.898438 79.363281 694.109375 80.007812 C 693.320312 80.652344 692.5625 81.335938 691.835938 82.054688 C 691.113281 82.773438 690.425781 83.527344 689.773438 84.3125 C 689.121094 85.097656 688.507812 85.914062 687.933594 86.757812 C 687.363281 87.601562 686.832031 88.472656 686.339844 89.367188 C 685.851562 90.265625 685.40625 91.179688 685.007812 92.121094 C 684.605469 93.058594 684.253906 94.015625 683.945312 94.988281 C 683.636719 95.960938 683.375 96.945312 683.164062 97.945312 C 682.949219 98.945312 682.785156 99.949219 682.667969 100.964844 C 682.554688 101.976562 682.488281 102.996094 682.46875 104.015625 C 682.464844 104.175781 682.464844 105.285156 682.464844 106.738281 C 682.464844 107.269531 682.515625 107.789062 682.621094 108.308594 C 682.722656 108.824219 682.875 109.328125 683.078125 109.816406 C 683.28125 110.304688 683.527344 110.765625 683.820312 111.207031 C 684.113281 111.644531 684.449219 112.050781 684.820312 112.425781 C 685.195312 112.796875 685.601562 113.132812 686.039062 113.425781 C 686.476562 113.71875 686.941406 113.964844 687.429688 114.167969 C 687.917969 114.371094 688.417969 114.523438 688.9375 114.625 C 689.457031 114.726562 689.976562 114.78125 690.507812 114.78125 C 691.035156 114.78125 691.558594 114.726562 692.074219 114.625 C 692.59375 114.523438 693.097656 114.367188 693.585938 114.167969 C 694.074219 113.964844 694.539062 113.714844 694.976562 113.421875 C 695.414062 113.128906 695.820312 112.796875 696.195312 112.421875 C 696.570312 112.046875 696.902344 111.640625 697.195312 111.203125 C 697.488281 110.761719 697.738281 110.300781 697.9375 109.8125 C 698.140625 109.324219 698.292969 108.820312 698.398438 108.300781 C 698.5 107.785156 698.550781 107.261719 698.550781 106.734375 L 698.550781 106.726562 C 698.550781 105.738281 698.550781 105.054688 698.550781 105.011719 C 698.550781 104.351562 698.59375 103.695312 698.675781 103.042969 C 698.761719 102.390625 698.890625 101.746094 699.058594 101.109375 C 699.226562 100.46875 699.433594 99.847656 699.683594 99.238281 C 699.933594 98.628906 700.222656 98.035156 700.546875 97.464844 C 700.875 96.890625 701.234375 96.339844 701.632812 95.816406 C 702.03125 95.289062 702.460938 94.792969 702.921875 94.324219 C 703.382812 93.851562 703.875 93.414062 704.394531 93.007812 C 704.910156 92.601562 705.453125 92.230469 706.019531 91.894531 C 706.589844 91.558594 707.175781 91.257812 707.78125 91 C 708.386719 90.738281 709.003906 90.519531 709.640625 90.339844 C 710.273438 90.160156 710.917969 90.023438 711.566406 89.925781 C 712.21875 89.828125 712.875 89.773438 713.535156 89.761719 C 714.191406 89.75 714.851562 89.78125 715.503906 89.855469 C 716.160156 89.929688 716.808594 90.046875 717.445312 90.203125 C 718.085938 90.359375 718.714844 90.558594 719.328125 90.796875 C 719.941406 91.035156 720.539062 91.316406 721.117188 91.628906 C 721.695312 91.945312 722.25 92.300781 722.785156 92.6875 C 723.316406 93.074219 723.820312 93.496094 724.300781 93.949219 C 724.777344 94.402344 725.222656 94.886719 725.640625 95.398438 C 726.054688 95.910156 726.433594 96.445312 726.78125 97.007812 C 727.128906 97.566406 727.433594 98.148438 727.707031 98.75 C 727.976562 99.351562 728.207031 99.964844 728.398438 100.597656 C 728.589844 101.226562 728.738281 101.867188 728.84375 102.519531 C 728.953125 103.167969 729.019531 103.824219 729.039062 104.480469 C 729.0625 105.140625 729.042969 105.796875 728.980469 106.453125 C 728.917969 107.109375 728.816406 107.757812 728.667969 108.398438 C 728.519531 109.042969 728.332031 109.671875 728.105469 110.292969 C 727.878906 110.910156 727.609375 111.511719 727.304688 112.09375 C 726.996094 112.675781 726.65625 113.238281 726.277344 113.777344 C 725.898438 114.316406 725.484375 114.828125 725.039062 115.316406 C 724.59375 115.800781 724.117188 116.253906 723.613281 116.679688 C 723.109375 117.101562 722.582031 117.492188 722.023438 117.847656 L 722.027344 117.851562 C 722.027344 117.851562 710.582031 125.21875 707.09375 135.324219 L 707.097656 135.324219 C 706.480469 137.40625 706.171875 139.53125 706.175781 141.703125 C 706.175781 142.589844 706.226562 150.355469 706.328125 156.65625 C 706.335938 157.195312 706.398438 157.730469 706.507812 158.253906 C 706.621094 158.78125 706.785156 159.292969 706.996094 159.789062 C 707.210938 160.285156 707.46875 160.753906 707.769531 161.199219 C 708.074219 161.644531 708.417969 162.054688 708.804688 162.433594 C 709.1875 162.808594 709.605469 163.144531 710.054688 163.441406 C 710.503906 163.738281 710.976562 163.988281 711.476562 164.195312 C 711.976562 164.398438 712.488281 164.550781 713.015625 164.65625 C 713.546875 164.757812 714.078125 164.8125 714.617188 164.8125 C 715.164062 164.8125 715.703125 164.757812 716.234375 164.652344 C 716.769531 164.546875 717.289062 164.386719 717.789062 164.179688 C 718.292969 163.972656 718.769531 163.714844 719.222656 163.414062 C 719.675781 163.109375 720.09375 162.769531 720.480469 162.382812 C 720.867188 161.996094 721.210938 161.578125 721.511719 161.125 C 721.8125 160.671875 722.070312 160.195312 722.277344 159.691406 C 722.484375 159.191406 722.644531 158.671875 722.75 158.136719 C 722.855469 157.605469 722.910156 157.066406 722.910156 156.519531 L 722.910156 156.46875 C 722.875 150.699219 722.855469 143.976562 722.855469 143.488281 C 722.855469 137.28125 728.839844 131.101562 733.757812 127.070312 C 736.605469 124.765625 739.003906 122.0625 740.949219 118.960938 C 742.898438 115.859375 744.292969 112.527344 745.132812 108.960938 C 745.496094 107.488281 745.695312 105.992188 745.730469 104.476562 C 745.730469 103.441406 745.679688 102.40625 745.578125 101.375 C 745.476562 100.34375 745.324219 99.320312 745.121094 98.304688 C 744.917969 97.289062 744.667969 96.285156 744.367188 95.296875 C 744.066406 94.304688 743.71875 93.328125 743.320312 92.371094 C 742.925781 91.414062 742.484375 90.480469 741.996094 89.566406 C 741.507812 88.652344 740.972656 87.765625 740.398438 86.90625 C 739.824219 86.042969 739.207031 85.210938 738.550781 84.410156 C 737.890625 83.609375 737.199219 82.84375 736.464844 82.113281 C 735.730469 81.378906 734.964844 80.683594 734.164062 80.027344 C 733.363281 79.371094 732.53125 78.753906 731.671875 78.179688 C 730.808594 77.601562 729.921875 77.070312 729.007812 76.582031 C 728.09375 76.09375 727.160156 75.652344 726.203125 75.257812 C 725.246094 74.859375 724.269531 74.511719 723.28125 74.210938 C 722.289062 73.910156 721.285156 73.660156 720.269531 73.457031 C 719.253906 73.253906 718.230469 73.101562 717.199219 73 C 716.167969 72.898438 715.132812 72.847656 714.097656 72.847656 C 714.023438 72.847656 713.945312 72.847656 713.867188 72.851562 Z M 713.867188 72.851562 "/><path style=" stroke:none;fill-rule:nonzero;fill:#2f2e41;fill-opacity:1;" d="M 180.769531 252.921875 C 194.714844 243.753906 212.242188 247.878906 227.742188 249.074219 C 241.746094 250.15625 258.34375 249.089844 268.195312 237.652344 C 278.441406 225.75 277.585938 208.078125 269.101562 195.488281 C 260.75 183.097656 246.890625 175.273438 232.222656 173.210938 C 228.160156 172.617188 224.082031 172.445312 219.980469 172.699219 C 215.882812 172.953125 211.855469 173.628906 207.898438 174.71875 C 203.941406 175.8125 200.136719 177.300781 196.488281 179.1875 C 192.839844 181.070312 189.425781 183.3125 186.246094 185.90625 L 191.230469 187.96875 C 188.324219 160.207031 167.910156 135.109375 140.515625 128.300781 C 112.800781 121.414062 81.808594 133.167969 67.023438 157.875 C 52.445312 182.234375 54.171875 216.222656 75.152344 236.464844 C 85.230469 246.183594 98.9375 251.136719 112.847656 248.496094 C 125.675781 246.058594 137.074219 236.707031 139.476562 223.503906 C 141.699219 211.261719 136.839844 197.359375 124.929688 192.011719 C 123.300781 191.253906 121.609375 190.683594 119.847656 190.308594 C 118.089844 189.933594 116.3125 189.761719 114.515625 189.789062 C 112.71875 189.820312 110.949219 190.050781 109.203125 190.480469 C 107.457031 190.910156 105.78125 191.53125 104.179688 192.34375 C 102.726562 193.160156 101.394531 194.144531 100.183594 195.289062 C 98.976562 196.4375 97.925781 197.714844 97.03125 199.125 C 96.140625 200.53125 95.433594 202.027344 94.910156 203.609375 C 94.390625 205.191406 94.070312 206.816406 93.949219 208.476562 C 93.722656 211.757812 94.355469 214.863281 95.847656 217.792969 C 97.5 221.164062 102.539062 218.210938 100.890625 214.84375 C 100.355469 213.605469 100.015625 212.320312 99.867188 210.980469 C 99.71875 209.640625 99.769531 208.3125 100.019531 206.988281 C 100.269531 205.664062 100.707031 204.40625 101.332031 203.214844 C 101.953125 202.019531 102.742188 200.945312 103.6875 199.984375 C 108.015625 195.464844 114.847656 194.714844 120.601562 196.5625 C 131.125 199.945312 135.769531 212.015625 133.789062 222.257812 C 131.566406 233.726562 121.773438 241.097656 110.621094 242.984375 C 98.492188 245.039062 86.664062 239.917969 78.246094 231.304688 C 60.617188 213.273438 59.089844 184.226562 70.984375 162.699219 C 83.050781 140.863281 108.785156 129.140625 133.300781 132.800781 C 157.542969 136.421875 177.507812 155.488281 183.726562 178.992188 C 184.511719 181.941406 185.066406 184.933594 185.390625 187.96875 C 185.410156 188.550781 185.585938 189.078125 185.917969 189.554688 C 186.246094 190.035156 186.679688 190.382812 187.21875 190.605469 C 187.753906 190.828125 188.308594 190.886719 188.878906 190.785156 C 189.453125 190.679688 189.949219 190.429688 190.375 190.035156 C 211.089844 172.835938 245.539062 174.679688 262.523438 196.316406 C 270.855469 206.929688 273.308594 223.410156 263.582031 234.070312 C 254.320312 244.21875 238.941406 244.230469 226.289062 243.117188 C 210.109375 241.695312 192.320312 238.351562 177.824219 247.878906 C 174.695312 249.933594 177.617188 254.992188 180.769531 252.921875 Z M 180.769531 252.921875 "/><path style=" stroke:none;fill-rule:nonzero;fill:#2f2e41;fill-opacity:1;" d="M 243.578125 636.703125 L 126.789062 636.703125 C 126.214844 636.703125 125.644531 636.644531 125.078125 636.53125 C 124.515625 636.421875 123.96875 636.253906 123.4375 636.035156 C 122.90625 635.8125 122.402344 635.542969 121.925781 635.222656 C 121.445312 634.90625 121.003906 634.542969 120.597656 634.136719 C 120.191406 633.730469 119.828125 633.285156 119.507812 632.808594 C 119.1875 632.332031 118.917969 631.824219 118.699219 631.296875 C 118.476562 630.765625 118.3125 630.214844 118.199219 629.652344 C 118.085938 629.089844 118.03125 628.519531 118.027344 627.945312 L 118.027344 589.023438 C 118.03125 588.445312 118.085938 587.878906 118.199219 587.3125 C 118.3125 586.75 118.476562 586.203125 118.699219 585.671875 C 118.917969 585.140625 119.1875 584.636719 119.507812 584.160156 C 119.828125 583.679688 120.191406 583.238281 120.597656 582.832031 C 121.003906 582.425781 121.445312 582.0625 121.925781 581.742188 C 122.402344 581.421875 122.90625 581.152344 123.4375 580.933594 C 123.96875 580.714844 124.515625 580.546875 125.082031 580.433594 C 125.644531 580.320312 126.214844 580.265625 126.789062 580.265625 L 243.578125 580.265625 C 244.152344 580.265625 244.722656 580.320312 245.285156 580.433594 C 245.847656 580.546875 246.394531 580.714844 246.925781 580.933594 C 247.457031 581.152344 247.960938 581.421875 248.441406 581.742188 C 248.917969 582.0625 249.359375 582.425781 249.765625 582.832031 C 250.175781 583.238281 250.535156 583.679688 250.855469 584.160156 C 251.175781 584.636719 251.445312 585.140625 251.667969 585.671875 C 251.886719 586.203125 252.054688 586.75 252.164062 587.3125 C 252.277344 587.878906 252.335938 588.445312 252.335938 589.023438 L 252.335938 627.945312 C 252.335938 628.519531 252.277344 629.089844 252.164062 629.652344 C 252.054688 630.214844 251.886719 630.765625 251.667969 631.296875 C 251.445312 631.824219 251.175781 632.332031 250.855469 632.808594 C 250.535156 633.285156 250.175781 633.730469 249.765625 634.136719 C 249.359375 634.542969 248.917969 634.90625 248.441406 635.222656 C 247.960938 635.542969 247.457031 635.8125 246.925781 636.035156 C 246.394531 636.253906 245.847656 636.421875 245.285156 636.53125 C 244.722656 636.644531 244.152344 636.703125 243.578125 636.703125 Z M 243.578125 636.703125 "/><path style=" stroke:none;fill-rule:nonzero;fill:#2f2e41;fill-opacity:1;" d="M 247.566406 444.800781 C 243.910156 426.105469 229.710938 411.300781 211.277344 405.210938 C 217.933594 403.070312 222.164062 399.898438 222.164062 396.351562 C 222.164062 389.902344 208.222656 384.675781 191.023438 384.675781 C 173.820312 384.675781 159.878906 389.902344 159.878906 396.351562 C 159.878906 399.949219 164.226562 403.164062 171.050781 405.308594 C 142.792969 413.730469 122.28125 438.320312 122.28125 467.277344 C 122.28125 467.277344 113.582031 523.03125 106.753906 567.597656 C 102.382812 596.113281 126.257812 621.597656 157.328125 621.597656 L 266.601562 621.597656 C 273.757812 621.597656 279.582031 616.199219 279.582031 609.566406 C 279.582031 609.566406 259.445312 505.535156 247.566406 444.800781 Z M 247.566406 444.800781 "/><g clip-rule="nonzero" clip-path="url(#843a6aaf42)"><path style=" stroke:none;fill-rule:nonzero;fill:#2563eb;fill-opacity:1;" d="M 438.808594 208.234375 L 631.632812 208.234375 L 631.632812 509.519531 L 438.808594 509.519531 Z M 438.808594 208.234375 "/></g><g clip-rule="nonzero" clip-path="url(#9fa4834b16)"><path style=" stroke:none;fill-rule:nonzero;fill:#2563eb;fill-opacity:1;" d="M 485.402344 229.738281 L 678.226562 229.738281 L 678.226562 509.933594 L 485.402344 509.933594 Z M 485.402344 229.738281 "/></g><g clip-rule="nonzero" clip-path="url(#9fc9c38b2e)"><path style=" stroke:none;fill-rule:evenodd;fill:#2f2e41;fill-opacity:1;" d="M 625.542969 399.1875 C 642.515625 411.390625 653.015625 428.363281 653.015625 447.199219 C 653.015625 449.363281 651.265625 451.113281 649.125 451.113281 L 472.6875 451.113281 C 470.546875 451.113281 468.796875 449.363281 468.796875 447.199219 C 468.796875 428.363281 479.296875 411.390625 496.269531 399.1875 C 512.871094 387.257812 535.738281 379.867188 560.90625 379.867188 C 586.074219 379.867188 608.941406 387.257812 625.542969 399.1875 Z M 560.90625 266.894531 C 589.503906 266.894531 612.695312 290.265625 612.695312 319.097656 C 612.695312 347.949219 589.503906 371.324219 560.90625 371.324219 C 532.304688 371.324219 509.117188 347.949219 509.117188 319.097656 C 509.117188 290.265625 532.304688 266.894531 560.90625 266.894531 Z M 560.90625 266.894531 "/></g></g></svg>