<svg width="467" height="77" viewBox="0 0 467 77" fill="none" xmlns="http://www.w3.org/2000/svg">
<path d="M129.273 23.5682V15.4545H167.5V23.5682H153.25V62H143.523V23.5682H129.273ZM169.989 62V27.0909H179.375V33.1818H179.739C180.375 31.0152 181.443 29.3788 182.943 28.2727C184.443 27.1515 186.17 26.5909 188.125 26.5909C188.61 26.5909 189.133 26.6212 189.693 26.6818C190.254 26.7424 190.746 26.8258 191.17 26.9318V35.5227C190.716 35.3864 190.087 35.2652 189.284 35.1591C188.481 35.053 187.746 35 187.08 35C185.655 35 184.383 35.3106 183.261 35.9318C182.155 36.5379 181.277 37.3864 180.625 38.4773C179.989 39.5682 179.67 40.8258 179.67 42.25V62H169.989ZM205.131 62.6591C202.903 62.6591 200.919 62.2727 199.176 61.5C197.434 60.7121 196.055 59.553 195.04 58.0227C194.04 56.4773 193.54 54.553 193.54 52.25C193.54 50.3106 193.896 48.6818 194.608 47.3636C195.32 46.0455 196.29 44.9848 197.517 44.1818C198.744 43.3788 200.138 42.7727 201.699 42.3636C203.275 41.9545 204.926 41.6667 206.653 41.5C208.684 41.2879 210.32 41.0909 211.562 40.9091C212.805 40.7121 213.706 40.4242 214.267 40.0455C214.828 39.6667 215.108 39.1061 215.108 38.3636V38.2273C215.108 36.7879 214.653 35.6742 213.744 34.8864C212.85 34.0985 211.578 33.7045 209.926 33.7045C208.184 33.7045 206.797 34.0909 205.767 34.8636C204.737 35.6212 204.055 36.5758 203.722 37.7273L194.767 37C195.222 34.8788 196.116 33.0455 197.449 31.5C198.782 29.9394 200.502 28.7424 202.608 27.9091C204.729 27.0606 207.184 26.6364 209.972 26.6364C211.911 26.6364 213.767 26.8636 215.54 27.3182C217.328 27.7727 218.911 28.4773 220.29 29.4318C221.684 30.3864 222.782 31.6136 223.585 33.1136C224.388 34.5985 224.79 36.3788 224.79 38.4545V62H215.608V57.1591H215.335C214.775 58.25 214.025 59.2121 213.085 60.0455C212.146 60.8636 211.017 61.5076 209.699 61.9773C208.381 62.4318 206.858 62.6591 205.131 62.6591ZM207.903 55.9773C209.328 55.9773 210.585 55.697 211.676 55.1364C212.767 54.5606 213.623 53.7879 214.244 52.8182C214.866 51.8485 215.176 50.75 215.176 49.5227V45.8182C214.873 46.0152 214.456 46.197 213.926 46.3636C213.411 46.5152 212.828 46.6591 212.176 46.7955C211.525 46.9167 210.873 47.0303 210.222 47.1364C209.57 47.2273 208.979 47.3106 208.449 47.3864C207.313 47.553 206.32 47.8182 205.472 48.1818C204.623 48.5455 203.964 49.0379 203.494 49.6591C203.025 50.2652 202.79 51.0227 202.79 51.9318C202.79 53.25 203.267 54.2576 204.222 54.9545C205.191 55.6364 206.419 55.9773 207.903 55.9773ZM245.165 62.5682C242.513 62.5682 240.112 61.8864 237.96 60.5227C235.824 59.1439 234.127 57.1212 232.869 54.4545C231.627 51.7727 231.006 48.4848 231.006 44.5909C231.006 40.5909 231.65 37.2652 232.938 34.6136C234.225 31.947 235.938 29.9545 238.074 28.6364C240.225 27.303 242.581 26.6364 245.142 26.6364C247.097 26.6364 248.725 26.9697 250.028 27.6364C251.347 28.2879 252.407 29.1061 253.21 30.0909C254.028 31.0606 254.65 32.0152 255.074 32.9545H255.369V15.4545H265.028V62H255.483V56.4091H255.074C254.619 57.3788 253.975 58.3409 253.142 59.2955C252.324 60.2348 251.256 61.0152 249.938 61.6364C248.634 62.2576 247.044 62.5682 245.165 62.5682ZM248.233 54.8636C249.794 54.8636 251.112 54.4394 252.188 53.5909C253.278 52.7273 254.112 51.5227 254.688 49.9773C255.278 48.4318 255.574 46.6212 255.574 44.5455C255.574 42.4697 255.286 40.6667 254.71 39.1364C254.134 37.6061 253.301 36.4242 252.21 35.5909C251.119 34.7576 249.794 34.3409 248.233 34.3409C246.642 34.3409 245.301 34.7727 244.21 35.6364C243.119 36.5 242.294 37.697 241.733 39.2273C241.172 40.7576 240.892 42.5303 240.892 44.5455C240.892 46.5758 241.172 48.3712 241.733 49.9318C242.309 51.4773 243.134 52.6894 244.21 53.5682C245.301 54.4318 246.642 54.8636 248.233 54.8636ZM288.898 62.6818C285.307 62.6818 282.216 61.9545 279.625 60.5C277.049 59.0303 275.064 56.9545 273.67 54.2727C272.277 51.5758 271.58 48.3864 271.58 44.7045C271.58 41.1136 272.277 37.9621 273.67 35.25C275.064 32.5379 277.027 30.4242 279.557 28.9091C282.102 27.3939 285.087 26.6364 288.511 26.6364C290.814 26.6364 292.958 27.0076 294.943 27.75C296.943 28.4773 298.686 29.5758 300.17 31.0455C301.67 32.5152 302.837 34.3636 303.67 36.5909C304.504 38.803 304.92 41.3939 304.92 44.3636V47.0227H275.443V41.0227H295.807C295.807 39.6288 295.504 38.3939 294.898 37.3182C294.292 36.2424 293.451 35.4015 292.375 34.7955C291.314 34.1742 290.08 33.8636 288.67 33.8636C287.201 33.8636 285.898 34.2045 284.761 34.8864C283.64 35.553 282.761 36.4545 282.125 37.5909C281.489 38.7121 281.163 39.9621 281.148 41.3409V47.0455C281.148 48.7727 281.466 50.2652 282.102 51.5227C282.754 52.7803 283.67 53.75 284.852 54.4318C286.034 55.1136 287.436 55.4545 289.057 55.4545C290.133 55.4545 291.117 55.303 292.011 55C292.905 54.697 293.67 54.2424 294.307 53.6364C294.943 53.0303 295.428 52.2879 295.761 51.4091L304.716 52C304.261 54.1515 303.33 56.0303 301.92 57.6364C300.527 59.2273 298.723 60.4697 296.511 61.3636C294.314 62.2424 291.777 62.6818 288.898 62.6818ZM350.352 15.4545V62H341.852L321.602 32.7045H321.261V62H311.42V15.4545H320.057L340.148 44.7273H340.557V15.4545H350.352ZM374.074 62.6818C370.544 62.6818 367.491 61.9318 364.915 60.4318C362.354 58.9167 360.377 56.8106 358.983 54.1136C357.589 51.4015 356.892 48.2576 356.892 44.6818C356.892 41.0758 357.589 37.9242 358.983 35.2273C360.377 32.5152 362.354 30.4091 364.915 28.9091C367.491 27.3939 370.544 26.6364 374.074 26.6364C377.604 26.6364 380.65 27.3939 383.21 28.9091C385.786 30.4091 387.771 32.5152 389.165 35.2273C390.559 37.9242 391.256 41.0758 391.256 44.6818C391.256 48.2576 390.559 51.4015 389.165 54.1136C387.771 56.8106 385.786 58.9167 383.21 60.4318C380.65 61.9318 377.604 62.6818 374.074 62.6818ZM374.119 55.1818C375.725 55.1818 377.066 54.7273 378.142 53.8182C379.218 52.8939 380.028 51.6364 380.574 50.0455C381.134 48.4545 381.415 46.6439 381.415 44.6136C381.415 42.5833 381.134 40.7727 380.574 39.1818C380.028 37.5909 379.218 36.3333 378.142 35.4091C377.066 34.4848 375.725 34.0227 374.119 34.0227C372.498 34.0227 371.134 34.4848 370.028 35.4091C368.938 36.3333 368.112 37.5909 367.551 39.1818C367.006 40.7727 366.733 42.5833 366.733 44.6136C366.733 46.6439 367.006 48.4545 367.551 50.0455C368.112 51.6364 368.938 52.8939 370.028 53.8182C371.134 54.7273 372.498 55.1818 374.119 55.1818ZM428.972 27.0909L416.767 62H405.858L393.653 27.0909H403.881L411.131 52.0682H411.494L418.722 27.0909H428.972ZM442.943 62.6591C440.716 62.6591 438.731 62.2727 436.989 61.5C435.246 60.7121 433.867 59.553 432.852 58.0227C431.852 56.4773 431.352 54.553 431.352 52.25C431.352 50.3106 431.708 48.6818 432.42 47.3636C433.133 46.0455 434.102 44.9848 435.33 44.1818C436.557 43.3788 437.951 42.7727 439.511 42.3636C441.087 41.9545 442.739 41.6667 444.466 41.5C446.496 41.2879 448.133 41.0909 449.375 40.9091C450.617 40.7121 451.519 40.4242 452.08 40.0455C452.64 39.6667 452.92 39.1061 452.92 38.3636V38.2273C452.92 36.7879 452.466 35.6742 451.557 34.8864C450.663 34.0985 449.39 33.7045 447.739 33.7045C445.996 33.7045 444.61 34.0909 443.58 34.8636C442.549 35.6212 441.867 36.5758 441.534 37.7273L432.58 37C433.034 34.8788 433.928 33.0455 435.261 31.5C436.595 29.9394 438.314 28.7424 440.42 27.9091C442.542 27.0606 444.996 26.6364 447.784 26.6364C449.723 26.6364 451.58 26.8636 453.352 27.3182C455.14 27.7727 456.723 28.4773 458.102 29.4318C459.496 30.3864 460.595 31.6136 461.398 33.1136C462.201 34.5985 462.602 36.3788 462.602 38.4545V62H453.42V57.1591H453.148C452.587 58.25 451.837 59.2121 450.898 60.0455C449.958 60.8636 448.83 61.5076 447.511 61.9773C446.193 62.4318 444.67 62.6591 442.943 62.6591ZM445.716 55.9773C447.14 55.9773 448.398 55.697 449.489 55.1364C450.58 54.5606 451.436 53.7879 452.057 52.8182C452.678 51.8485 452.989 50.75 452.989 49.5227V45.8182C452.686 46.0152 452.269 46.197 451.739 46.3636C451.223 46.5152 450.64 46.6591 449.989 46.7955C449.337 46.9167 448.686 47.0303 448.034 47.1364C447.383 47.2273 446.792 47.3106 446.261 47.3864C445.125 47.553 444.133 47.8182 443.284 48.1818C442.436 48.5455 441.777 49.0379 441.307 49.6591C440.837 50.2652 440.602 51.0227 440.602 51.9318C440.602 53.25 441.08 54.2576 442.034 54.9545C443.004 55.6364 444.231 55.9773 445.716 55.9773Z" fill="#222222"/>
<path d="M72.9 20H102V49.1" stroke="#3B82F6" stroke-width="9" stroke-linecap="round" stroke-linejoin="round"/>
<path d="M102 20L60.775 61.225L36.525 36.975L5 68.5" stroke="#3B82F6" stroke-width="9" stroke-linecap="round" stroke-linejoin="round"/>
</svg>
